<svg width="10" height="10" viewBox="0 0 8 8" fill="none" xmlns="http://www.w3.org/2000/svg">
<g clip-path="url(#clip0_134_530)">
<path d="M4.73292 4.00633L7.84796 0.89119C8.05068 0.688564 8.05068 0.360944 7.84796 0.158318C7.64534 -0.044309 7.31772 -0.044309 7.11509 0.158318L3.99995 3.27345L0.884914 0.158318C0.682192 -0.044309 0.354668 -0.044309 0.152041 0.158318C-0.0506804 0.360944 -0.0506804 0.688564 0.152041 0.89119L3.26708 4.00633L0.152041 7.12146C-0.0506804 7.32409 -0.0506804 7.65171 0.152041 7.85433C0.253022 7.95541 0.385797 8.00619 0.518477 8.00619C0.651158 8.00619 0.783838 7.95541 0.884914 7.85433L3.99995 4.7392L7.11509 7.85433C7.21617 7.95541 7.34885 8.00619 7.48153 8.00619C7.61421 8.00619 7.74689 7.95541 7.84796 7.85433C8.05068 7.65171 8.05068 7.32409 7.84796 7.12146L4.73292 4.00633Z" fill="black"/>
</g>
<defs>
<clipPath id="clip0_134_530">
<rect width="10" height="10" fill="white"/>
</clipPath>
</defs>
</svg>
