<svg width="21" height="15" viewBox="0 0 21 15" fill="none" xmlns="http://www.w3.org/2000/svg">
<path d="M7.18117 12.7506C6.99177 12.7499 6.80963 12.6777 6.67136 12.5483C5.98673 11.8986 5.44153 11.1164 5.06898 10.2493C4.69642 9.38231 4.50429 8.44856 4.50429 7.50494C4.50429 6.56131 4.69642 5.62756 5.06898 4.76052C5.44153 3.89349 5.98673 3.11131 6.67136 2.4616C6.8189 2.34203 7.00634 2.28288 7.19581 2.29611C7.38529 2.30934 7.56268 2.39397 7.69215 2.53289C7.82161 2.67181 7.8935 2.85467 7.89328 3.04452C7.89306 3.23438 7.82076 3.41707 7.69098 3.5557C7.15804 4.0663 6.73396 4.6794 6.44425 5.35809C6.15455 6.03678 6.0052 6.76705 6.0052 7.50494C6.0052 8.24283 6.15455 8.97309 6.44425 9.65178C6.73396 10.3305 7.15804 10.9436 7.69098 11.4542C7.8006 11.5568 7.87688 11.6899 7.90993 11.8363C7.94298 11.9827 7.93128 12.1357 7.87634 12.2754C7.82141 12.4151 7.72578 12.535 7.60183 12.6198C7.47788 12.7045 7.33133 12.7501 7.18117 12.7506ZM4.1823 14.7589C4.32194 14.6185 4.40031 14.4286 4.40031 14.2306C4.40031 14.0327 4.32194 13.8427 4.1823 13.7023C3.34355 12.9025 2.67587 11.9408 2.21969 10.8756C1.7635 9.81034 1.5283 8.66366 1.5283 7.50494C1.5283 6.34621 1.7635 5.19953 2.21969 4.13429C2.67587 3.06906 3.34355 2.10741 4.1823 1.30756C4.32745 1.16744 4.41097 0.975427 4.41449 0.773758C4.418 0.572089 4.34122 0.377283 4.20104 0.232197C4.06086 0.0871112 3.86876 0.00362894 3.667 0.000115533C3.46524 -0.00339787 3.27035 0.0733453 3.1252 0.213463C2.13761 1.15409 1.35139 2.28536 0.814195 3.53871C0.276994 4.79207 0 6.1414 0 7.50494C0 8.86847 0.276994 10.2178 0.814195 11.4712C1.35139 12.7245 2.13761 13.8558 3.1252 14.7964C3.19734 14.8643 3.28221 14.9171 3.37492 14.952C3.46763 14.9869 3.56632 15.003 3.66531 14.9995C3.7643 14.9961 3.86162 14.973 3.95164 14.9317C4.04167 14.8904 4.12261 14.8317 4.1898 14.7589H4.1823ZM14.326 12.5483C15.0106 11.8986 15.5558 11.1164 15.9284 10.2493C16.3009 9.38231 16.4931 8.44856 16.4931 7.50494C16.4931 6.56131 16.3009 5.62756 15.9284 4.76052C15.5558 3.89349 15.0106 3.11131 14.326 2.4616C14.2541 2.39419 14.1697 2.34159 14.0774 2.3068C13.9852 2.27202 13.8871 2.25572 13.7886 2.25886C13.6901 2.26199 13.5931 2.28448 13.5033 2.32506C13.4135 2.36563 13.3326 2.42349 13.2651 2.49533C13.1977 2.56717 13.1451 2.65158 13.1103 2.74375C13.0755 2.83592 13.0592 2.93403 13.0623 3.0325C13.0654 3.13096 13.0879 3.22785 13.1285 3.31762C13.1691 3.40739 13.227 3.48829 13.2989 3.5557C13.8347 4.06464 14.2613 4.67719 14.5529 5.35611C14.8444 6.03503 14.9947 6.76612 14.9947 7.50494C14.9947 8.24375 14.8444 8.97485 14.5529 9.65376C14.2613 10.3327 13.8347 10.9452 13.2989 11.4542C13.1541 11.5896 13.0689 11.7767 13.0619 11.9748C13.0549 12.1728 13.1266 12.3655 13.2614 12.5108C13.3321 12.5871 13.418 12.6478 13.5135 12.6891C13.609 12.7303 13.7121 12.7513 13.8162 12.7506C14.0056 12.7499 14.1877 12.6777 14.326 12.5483ZM17.8646 14.7964C18.8551 13.8575 19.6439 12.7267 20.183 11.4732C20.722 10.2196 21 8.8694 21 7.50494C21 6.14047 20.722 4.79029 20.183 3.53671C19.6439 2.28313 18.8551 1.15241 17.8646 0.213463C17.7171 0.0938854 17.5297 0.0347376 17.3402 0.0479695C17.1507 0.0612014 16.9733 0.145826 16.8439 0.284747C16.7144 0.423668 16.6425 0.606528 16.6427 0.796383C16.6429 0.986237 16.7153 1.16893 16.845 1.30756C17.6838 2.10741 18.3515 3.06906 18.8076 4.13429C19.2638 5.19953 19.499 6.34621 19.499 7.50494C19.499 8.66366 19.2638 9.81034 18.8076 10.8756C18.3515 11.9408 17.6838 12.9025 16.845 13.7023C16.7003 13.8377 16.6151 14.0249 16.6081 14.2229C16.6011 14.4209 16.6728 14.6136 16.8075 14.7589C16.8774 14.8343 16.9621 14.8944 17.0563 14.9357C17.1504 14.977 17.252 14.9984 17.3548 14.9987C17.5442 14.9981 17.7264 14.9258 17.8646 14.7964ZM12.0019 7.50494C12.0019 7.20851 11.9139 6.91874 11.7492 6.67227C11.5844 6.4258 11.3502 6.2337 11.0762 6.12026C10.8022 6.00682 10.5008 5.97714 10.2099 6.03497C9.91903 6.0928 9.65186 6.23555 9.44216 6.44515C9.23246 6.65476 9.08965 6.92181 9.0318 7.21254C8.97394 7.50327 9.00363 7.80463 9.11712 8.07849C9.23061 8.35235 9.4228 8.58642 9.66938 8.75111C9.91596 8.9158 10.2059 9.0037 10.5024 9.0037C10.9001 9.0037 11.2815 8.84579 11.5627 8.56472C11.8439 8.28365 12.0019 7.90243 12.0019 7.50494Z" fill="#4982F3"/>
</svg>
